<?xml version="1.0" encoding="utf-8"?>
<!-- Generator: Adobe Illustrator 16.2.1, SVG Export Plug-In . SVG Version: 6.00 Build 0)  -->
<!DOCTYPE svg PUBLIC "-//W3C//DTD SVG 1.1//EN" "http://www.w3.org/Graphics/SVG/1.1/DTD/svg11.dtd">
<svg version="1.1" id="Layer_1" xmlns="http://www.w3.org/2000/svg" xmlns:xlink="http://www.w3.org/1999/xlink" x="0px" y="0px"
	 width="900px" height="300px" viewBox="0 0 900 300" enable-background="new 0 0 900 300" xml:space="preserve">
<g id="Layer_2">
	<g>
		<path fill="#010101" d="M132.062,143.613c20.044-10.809,43.131-6.892,51.565,8.749c4.412,8.182,6.152,18.375-1.637,24.627
			c-1.155,0.93-2.212,1.63-3.196,2.16c-5.672,3.059-8.979,0.535-15.514,4.057c-0.598,0.321-1.22,0.693-1.874,1.124
			c-8.57,5.647-0.931,10.411-15.313,18.165c-15.748,8.493-30.103-1.812-35.052-10.991
			C102.605,175.862,112.017,154.42,132.062,143.613 M130.25,140.252L130.25,140.252c-10.44,5.629-18.563,14.139-22.875,23.959
			c-4.454,10.146-4.345,20.482,0.305,29.105c3.172,5.883,8.901,11.047,15.325,13.816c5.713,2.463,14.669,4.24,24.9-1.277
			c8.858-4.776,10.7-8.855,12.051-13.312c0.655-2.163,1.018-3.354,3.551-5.026c0.541-0.355,1.072-0.675,1.584-0.951
			c2.678-1.444,4.6-1.598,6.825-1.779c2.461-0.197,5.249-0.422,8.691-2.278c1.248-0.673,2.482-1.506,3.775-2.543
			c8.07-6.479,9.045-17.476,2.606-29.416C177.568,133.081,152.114,128.462,130.25,140.252L130.25,140.252L130.25,140.252z"/>
	</g>
	<g>
		<circle fill="#010101" cx="160.958" cy="163.22" r="11.879"/>
	</g>
	<g>
		<path fill="#010101" d="M177.416,177.121c-0.452,0.245-0.898,0.386-1.328,0.398c-0.898,0.022-1.644-0.492-2.048-1.414
			c-0.432-0.99,0.173-2.151,0.873-3.496c0.609-1.168,1.365-2.619,1.085-3.484c-0.039-0.116-0.153-0.475-0.812-0.805
			c-0.403-0.197-1.411,1.652-2.081,2.873c-1.309,2.391-2.939,5.362-5.723,7.235c-5.601,3.78-11.043,0.096-11.27-0.063l-0.087-0.066
			c-4.617-4.07-9.166-6.67-9.798-6.078c0.007,0.574,2.135,2.588,3.279,3.668c2.308,2.18,4.301,4.062,3.806,5.715
			c-0.237,0.789-0.868,1.295-1.734,1.382c-2.603,0.267-7.718-3.518-10.664-8.982c-3.752-6.957-2.646-13.812,0.693-15.614
			c0.752-0.403,1.303-0.254,1.635-0.059c0.932,0.552,0.943,1.916,0.955,3.497c0.005,0.698,0.015,1.954,0.204,2.374
			c0.06-0.017,0.15-0.053,0.274-0.121c0.589-0.316,0.591-1.332,0.544-2.96c-0.06-2.173-0.144-5.146,2.103-7.622
			c2.837-3.129,6.016-4.192,8.333-4.967c1.891-0.633,2.976-1.033,3.28-1.912c0.223-0.646,0.188-1.004,0.091-1.114
			c-0.15-0.168-0.803-0.363-2.292-0.034c-4.478,0.998-11.424,5.49-12.39,8.719c-0.151,0.507-0.682,0.793-1.188,0.642
			c-0.505-0.152-0.791-0.684-0.641-1.189c1.274-4.256,9.251-9.022,13.804-10.035c1.979-0.44,3.368-0.23,4.13,0.625
			c0.636,0.712,0.732,1.726,0.289,3.009c-0.625,1.811-2.411,2.408-4.478,3.099c-2.236,0.748-5.02,1.677-7.524,4.438
			c-1.73,1.907-1.666,4.233-1.606,6.287c0.054,1.869,0.107,3.803-1.546,4.695c-0.825,0.444-1.546,0.49-2.145,0.137
			c-1.123-0.665-1.135-2.312-1.149-4.057c-0.003-0.452-0.009-1.119-0.059-1.568c-2.011,1.596-2.788,6.978,0.364,12.824
			c2.456,4.553,6.217,7.357,8.104,7.895c0.499,0.143,0.752,0.117,0.794,0.07c0.023-0.646-2.138-2.689-3.299-3.787
			c-2.082-1.967-3.881-3.666-3.847-5.172c0.011-0.521,0.229-0.979,0.63-1.326c2.459-2.12,9.354,3.488,12.261,6.047
			c0.483,0.318,4.727,2.936,9.077,0.021c2.4-1.615,3.905-4.361,5.113-6.568c1.322-2.412,2.57-4.688,4.611-3.662
			c0.912,0.457,1.508,1.104,1.772,1.923c0.525,1.625-0.397,3.394-1.21,4.952c-0.33,0.637-0.831,1.6-0.8,1.899
			c0.104,0.224,0.186,0.221,0.231,0.22c0.966-0.029,3.323-2.521,4.597-5.918c0.479-1.279,1.412-4.425-0.283-5.985
			c-0.25-0.23-0.364-0.251-0.367-0.252c-0.07,0.009-0.298,0.165-0.451,0.267c-0.577,0.391-1.541,1.043-3.037,0.598
			c-1.296-0.388-1.833-1.902-2.576-3.997c-0.48-1.351-1.025-2.885-1.87-4.452c-0.979-1.816-3.233-3.391-5.222-4.777
			c-2.109-1.474-3.774-2.636-3.895-4.063c-0.116-1.388,0.25-2.323,1.088-2.775l0,0c1.732-0.934,4.586,0.841,8.341,3.792l0.479,0.375
			c3.112,2.377,4.311,5.61,5.103,7.75c0.252,0.678,0.588,1.585,0.822,1.87c0.367-0.204,0.637-0.509,0.723-0.949
			c0.383-1.905-1.946-5.664-3.503-7.585c-0.332-0.41-0.27-1.011,0.141-1.342c0.413-0.33,1.012-0.271,1.343,0.141
			c0.471,0.58,4.572,5.764,3.892,9.16c-0.197,0.986-0.775,1.762-1.67,2.244c-0.682,0.367-1.231,0.291-1.571,0.162
			c-0.976-0.367-1.392-1.488-1.966-3.038c-0.761-2.05-1.799-4.856-4.47-6.898l-0.501-0.389c-4.991-3.924-6.07-3.711-6.248-3.615
			c-0.002,0-0.004,0.001-0.007,0.003c0.002-0.001-0.153,0.188-0.091,0.933c0.044,0.534,1.875,1.811,3.085,2.657
			c2.163,1.51,4.616,3.221,5.811,5.437c0.914,1.697,1.509,3.372,1.987,4.72c0.403,1.138,0.955,2.695,1.324,2.807
			c0.627,0.187,0.924-0.016,1.417-0.35c0.609-0.408,1.734-1.174,3.182,0.162c1.795,1.652,2.079,4.592,0.777,8.059
			C181.389,173.118,179.362,176.072,177.416,177.121z"/>
	</g>
	<g>
		<path fill="#010101" d="M140.536,200.864c-1.561,0.842-4.479,0.435-6.69-0.228c-3.378-1.012-6.515-2.938-5.909-4.963
			c0.097-0.328,0.346-0.788,0.974-1.127c1.56-0.841,4.478-0.435,6.689,0.227c3.378,1.013,6.516,2.938,5.91,4.964
			C141.413,200.063,141.164,200.525,140.536,200.864z M129.802,196.236c0.221,0.474,1.654,1.691,4.593,2.571
			c2.479,0.741,4.547,0.747,5.236,0.376c0.006-0.004,0.011-0.007,0.016-0.01c-0.22-0.473-1.655-1.69-4.593-2.569
			c-2.479-0.743-4.548-0.749-5.236-0.378C129.812,196.23,129.806,196.233,129.802,196.236z"/>
	</g>
	<g>
		<path fill="#010101" d="M141.744,196.832c-1.562,0.842-4.479,0.434-6.69-0.228c-3.378-1.011-6.516-2.938-5.909-4.963
			c0.098-0.327,0.346-0.79,0.973-1.128c1.56-0.841,4.479-0.434,6.689,0.229c1.667,0.498,3.179,1.199,4.259,1.972
			c1.734,1.243,1.854,2.312,1.65,2.99C142.621,196.031,142.371,196.494,141.744,196.832z M131.009,192.205
			c0.22,0.471,1.654,1.691,4.593,2.57c2.478,0.741,4.547,0.746,5.236,0.376c0.006-0.004,0.011-0.007,0.016-0.009
			c-0.22-0.473-1.655-1.693-4.594-2.572C133.764,191.822,131.644,191.85,131.009,192.205z"/>
	</g>
	<g>
		<path fill="#010101" d="M142.951,192.799c-1.56,0.841-4.479,0.435-6.691-0.229c-3.378-1.01-6.516-2.936-5.909-4.962
			c0.099-0.327,0.346-0.787,0.975-1.127c1.561-0.841,4.479-0.435,6.69,0.228c3.378,1.011,6.516,2.938,5.91,4.963
			C143.827,192,143.579,192.461,142.951,192.799z M132.215,188.17c0.221,0.473,1.654,1.693,4.592,2.572
			c2.479,0.74,4.549,0.746,5.237,0.375c0.006-0.002,0.01-0.005,0.016-0.008c-0.221-0.475-1.654-1.691-4.593-2.572
			c-2.479-0.742-4.547-0.746-5.236-0.375C132.226,188.166,132.221,188.168,132.215,188.17z"/>
	</g>
	<g>
		<path fill="#010101" d="M121.583,186.904c-1.832,0.986-4.125,0.301-5.113-1.531c-0.987-1.832-0.301-4.125,1.531-5.111
			c1.832-0.988,4.125-0.302,5.112,1.528C124.101,183.623,123.414,185.916,121.583,186.904z M118.907,181.941
			c-0.905,0.488-1.244,1.621-0.756,2.525s1.621,1.244,2.526,0.757c0.905-0.487,1.244-1.622,0.756-2.527
			C120.945,181.793,119.812,181.453,118.907,181.941z"/>
	</g>
	<g>
		<path fill="#010101" d="M132.757,181.518c-1.832,0.988-4.125,0.301-5.112-1.53c-0.989-1.831-0.302-4.125,1.53-5.112
			c1.832-0.988,4.125-0.303,5.112,1.529C135.276,178.236,134.589,180.529,132.757,181.518z M130.082,176.555
			c-0.905,0.488-1.244,1.621-0.756,2.527c0.489,0.904,1.621,1.244,2.526,0.756c0.905-0.488,1.244-1.622,0.755-2.527
			C132.119,176.406,130.986,176.068,130.082,176.555z"/>
	</g>
	<g>
		<path fill="#010101" d="M128.342,163.67c-2.495,1.346-5.619,0.41-6.964-2.084s-0.41-5.617,2.085-6.961
			c2.496-1.346,5.621-0.412,6.965,2.082C131.772,159.201,130.836,162.325,128.342,163.67z M124.371,156.305
			c-0.761,0.41-1.315,1.09-1.562,1.916c-0.248,0.826-0.159,1.7,0.25,2.459c0.846,1.568,2.81,2.156,4.378,1.311
			c1.568-0.846,2.157-2.809,1.312-4.377C127.902,156.045,125.938,155.46,124.371,156.305z"/>
	</g>
	<g>
		<path fill="#010101" d="M120.34,174.42c-0.464,0.25-1.043,0.077-1.293-0.388c-0.25-0.463-0.077-1.042,0.387-1.294
			c0.713-0.384,0.981-1.277,0.596-1.992c-0.25-0.462-0.077-1.043,0.387-1.293c0.463-0.249,1.044-0.075,1.294,0.387
			C122.594,171.48,121.98,173.535,120.34,174.42z"/>
	</g>
	<g>
		<path fill="#010101" d="M122.329,194.229c-1.084,0.585-2.442,0.178-3.027-0.905c-0.25-0.464-0.076-1.044,0.388-1.293
			c0.463-0.251,1.042-0.077,1.292,0.387c0.085,0.157,0.282,0.216,0.44,0.132c0.465-0.252,1.043-0.078,1.293,0.387
			C122.967,193.4,122.794,193.977,122.329,194.229z"/>
	</g>
	<g>
		<path fill="#010101" d="M138.096,153.059c-0.463,0.25-1.043,0.077-1.293-0.387c-0.931-1.727-3.091-2.372-4.818-1.441
			c-0.463,0.25-1.043,0.075-1.293-0.387c-0.25-0.464-0.077-1.042,0.387-1.293c2.653-1.431,5.975-0.437,7.405,2.215
			C138.733,152.229,138.561,152.809,138.096,153.059z"/>
	</g>
</g>
<g>
	<path fill="#010101" d="M290.195,161.402c-0.446-0.223-2.778-0.647-4.697-0.145c-0.381-0.314-0.926-0.385-1.383-0.133
		c-1.209,0.672-2.496,2.78-4.468,6.172c-1,1.721-2.134,3.67-2.721,4.223c-0.978,0.832-7.29-0.267-8.562-0.744
		c-0.268-0.164-1.317-1.111-2.162-1.872c-2.186-1.971-3.806-3.401-4.766-3.849c-0.783-0.368-1.403-0.656-2.197-0.207
		c-0.113,0.064-0.412,0.084-0.643,0.091c-2.179,0.058-3.375,0.952-3.504,1.055c-0.024,0.019-0.034,0.046-0.058,0.065
		c-1.169-0.185-2.295-0.709-3.199-1.611c-0.917-0.92-1.464-2.067-1.644-3.26c0.015-0.018,0.038-0.024,0.051-0.042
		c0.102-0.13,0.997-1.325,1.058-3.506c0.006-0.232,0.027-0.531,0.09-0.642c0.452-0.797,0.176-1.385-0.206-2.195
		c-0.447-0.963-1.875-2.582-3.845-4.764c-0.763-0.845-1.711-1.897-1.835-2.081c-1.211-3.168-1.143-8.229-0.784-8.646
		c0.552-0.588,2.499-1.72,4.217-2.719c3.395-1.974,5.504-3.26,6.176-4.471c0.254-0.458,0.181-1.004-0.134-1.384
		c0.503-1.919,0.077-4.252-0.146-4.697c-0.149-0.298-0.503-0.412-0.804-0.271c-0.303,0.14-0.434,0.508-0.303,0.814
		c0.115,0.272,0.465,2.194,0.09,3.74c-0.352,0.064-0.677,0.263-0.864,0.601c-0.391,0.706-3.437,2.475-5.258,3.534
		c-2.135,1.241-3.977,2.312-4.776,3.163c-2.292,2.437,0.274,11.217,0.309,11.296c0.189,0.44,0.71,1.04,2.277,2.774
		c1.165,1.291,3.114,3.454,3.441,4.156c0.05,0.109,0.094,0.197,0.127,0.275c-0.136,0.338-0.225,0.768-0.244,1.448
		c-0.034,1.243-0.437,1.901-0.518,2.022c-0.839,0.241-1.719,0.513-2.643,0.82l-2.718-3.037c-0.171-0.191-0.4-0.326-0.653-0.381
		c-3.862-0.859-8.298-1.993-9.026-2.396c-0.604-0.398-2.585-3.516-3.042-5.999c-0.157-0.851-0.072-1.349,0.059-1.531
		c0.399-0.553,0.273-1.324-0.281-1.723c-0.555-0.4-1.325-0.273-1.724,0.281c-0.636,0.884-0.773,2.155-0.41,3.778
		c0.625,2.789,2.777,6.564,4.187,7.344c1.317,0.734,7.344,2.125,9.315,2.568l1.777,1.986c-1.517,0.563-3.082,1.193-4.645,1.881
		l-3.948-1.794c-0.299-0.137-0.638-0.149-0.943-0.032c-4.23,1.58-11.023,3.498-12.88,2.821c-2.444-0.892-3.117-3.357-3.143-3.454
		c-0.167-0.662-0.837-1.064-1.498-0.898c-0.662,0.165-1.064,0.836-0.897,1.498c0.039,0.155,0.996,3.826,4.691,5.174
		c0.516,0.189,1.169,0.271,1.915,0.27c3.812,0,10.006-2.123,12.196-2.918l1.553,0.705c-1.526,0.75-3,1.549-4.385,2.378
		c-0.133-0.099-0.286-0.177-0.458-0.216c-0.436-0.103-4.324-0.939-6.381,0.998l-0.47,0.439c-1.861,1.753-6.807,6.404-8.384,7.54
		c-0.784,0.567-3.229,0.942-5.397,1.108c0.386-1.531,0.6-3.746-0.567-5.619c-0.36-0.58-1.124-0.757-1.701-0.396
		c-0.579,0.361-0.756,1.123-0.396,1.701c1.25,2.006-0.198,5.074-0.211,5.104c-0.188,0.389-0.161,0.844,0.071,1.207
		c0.227,0.354,0.619,0.566,1.038,0.566c0.01,0,0.021,0,0.029,0c1.082-0.025,6.583-0.229,8.577-1.668
		c1.504-1.086,5.208-4.524,8.631-7.744l0.468-0.438c0.45-0.423,1.285-0.571,2.119-0.585c-1.043,0.762-1.992,1.539-2.781,2.327
		c-7.486,7.486-8.226,18.887-3.946,23.167c4.275,4.275,15.675,3.538,23.161-3.949c0.919-0.92,1.823-2.052,2.702-3.314
		c0.094,1.077,0.035,2.434-0.549,3.055l-0.318,0.339c-3.076,3.269-6.751,7.218-7.868,8.762c-1.438,1.996-1.643,7.493-1.669,8.575
		c-0.01,0.43,0.205,0.832,0.564,1.066c0.204,0.13,0.437,0.196,0.671,0.196c0.183,0,0.366-0.039,0.536-0.12
		c0.03-0.017,3.102-1.461,5.108-0.214c0.578,0.361,1.339,0.184,1.7-0.395c0.36-0.579,0.184-1.341-0.396-1.7
		c-1.875-1.17-4.088-0.956-5.621-0.568c0.168-2.167,0.542-4.611,1.108-5.394c1.166-1.616,5.885-6.628,7.663-8.515l0.321-0.342
		c1.934-2.059,1.099-5.947,0.998-6.383c-0.088-0.379-0.352-0.66-0.677-0.816c0.885-1.482,1.729-3.078,2.523-4.721l1.021,2.246
		c-0.954,2.618-3.802,10.963-2.653,14.11c1.349,3.696,5.02,4.653,5.176,4.691c0.1,0.023,0.201,0.036,0.3,0.036
		c0.552,0,1.057-0.373,1.198-0.936c0.165-0.661-0.238-1.332-0.9-1.496c-0.024-0.008-2.548-0.664-3.453-3.143
		c-0.679-1.857,1.243-8.651,2.823-12.881c0.114-0.307,0.103-0.646-0.033-0.944l-1.984-4.36c-0.041-0.088-0.106-0.152-0.164-0.227
		c0.646-1.486,1.24-2.973,1.776-4.412l2.443,2.186c0.443,1.971,1.835,7.999,2.568,9.316c0.788,1.416,4.571,3.566,7.358,4.189
		c0.585,0.13,1.122,0.195,1.613,0.195c0.87,0,1.591-0.204,2.153-0.609c0.552-0.4,0.677-1.173,0.279-1.725
		c-0.4-0.553-1.172-0.68-1.725-0.279c-0.179,0.135-0.674,0.217-1.524,0.061c-2.482-0.455-5.604-2.438-5.997-3.03
		c-0.411-0.739-1.544-5.179-2.403-9.042c-0.055-0.252-0.19-0.479-0.382-0.65l-3.49-3.125c0.235-0.692,0.451-1.359,0.65-2.004
		c0.203-0.023,0.402-0.081,0.581-0.209c0.027-0.021,0.712-0.504,2.062-0.54c0.679-0.02,1.107-0.106,1.45-0.245
		c0.076,0.035,0.169,0.078,0.279,0.129c0.7,0.327,2.865,2.278,4.158,3.445c1.829,1.648,2.339,2.088,2.768,2.27
		c0.055,0.025,4.28,1.264,7.686,1.264c1.511,0,2.863-0.245,3.613-0.95c0.852-0.801,1.925-2.646,3.167-4.78
		c1.058-1.82,2.829-4.865,3.53-5.254c0.337-0.188,0.538-0.514,0.599-0.866c1.545-0.376,3.468-0.023,3.732,0.087
		c0.304,0.154,0.676,0.032,0.829-0.275C290.625,161.926,290.5,161.555,290.195,161.402z"/>
	<path fill="#010101" d="M252.791,157.852c-1.533,1.535-1.533,4.022,0,5.554c1.534,1.535,4.021,1.535,5.555,0.002
		c0.572-0.571,0.929-1.277,1.075-2.015c2.708-1.793,0.212-4.729,0.212-4.729c0.146,1.193-0.357,1.627-0.8,1.787
		c-0.14-0.211-0.304-0.412-0.489-0.598c-0.154-0.154-0.323-0.282-0.494-0.404c0.166-0.438,0.599-0.929,1.783-0.785
		c0,0-2.841-2.407-4.64,0.096C254.188,156.875,253.411,157.231,252.791,157.852z"/>
</g>
<g>
	<polygon fill="#010101" points="335.12,173.316 332.344,173.824 307.056,180.348 306.811,179.398 332.067,172.887 344.397,159.979 
		345.012,160.473 	"/>
	<polygon fill="#010101" points="339.696,181.223 337.874,183.377 319.623,202.058 320.325,202.743 338.549,184.084 355.884,179.82 
		355.762,179.043 	"/>
	<polygon fill="#010101" points="334.829,163.18 310.938,158.18 311.139,157.225 334.028,162.011 340.759,157.418 341.425,158.268 	
		"/>
	<g>
		<polygon fill="#010101" points="365.087,156.711 362.25,158.354 361.785,147.581 372.182,147.082 382.227,130.345 
			383.069,130.849 372.503,148.489 363.679,149.208 		"/>
	</g>
	<path fill="#010101" d="M355.312,162.369l3.539-3.182c0,0-11.047-10.688-19.078-17.222c-12.396-6.415-5.604,9.544-0.396,13.583
		C344.431,159.466,355.312,162.369,355.312,162.369z"/>
	<polygon fill="#010101" points="348.329,186.533 340.764,209.739 341.691,210.04 348.942,187.809 356.275,184.26 355.871,183.259 	
		"/>
	<g>
		<polygon fill="#010101" points="369.168,163.764 366.332,165.406 375.442,171.174 381.051,162.406 400.568,162.031 
			400.55,161.051 379.992,161.428 374.972,168.723 		"/>
	</g>
	<path fill="#010101" d="M359.231,169.172l4.521-1.482c0,0,3.766,14.902,5.434,25.12c-0.612,13.944-11.067,0.106-11.976-6.421
		C356.329,180.055,359.231,169.172,359.231,169.172z"/>
	<g>
		<path fill="#010101" d="M357.961,167.698c-1.798,1.638-4.133,2.749-7.454,4.673c-6.206,3.592-11.802,5.535-12.499,4.328
			c-0.695-1.198,3.778-5.084,9.982-8.676c3.469-2.008,5.679-3.288,8.02-4.008c0.547-1.568,3.311-3.616,5.677-4.985
			c2.413-1.396,4.901-1.953,6.542-1.601l0.003-0.002c0.244-0.912,0.941-1.809,1.963-2.4c1.514-0.877,3.251-0.801,4.198,0.101
			l17.217-9.524l0.246,0.424l-16.83,10.222c0.29,1.266-0.506,2.785-2.007,3.654c-1.022,0.592-2.148,0.751-3.059,0.508l-0.003,0.002
			c-0.511,1.602-2.233,3.479-4.647,4.876C362.735,166.783,359.587,168.201,357.961,167.698z"/>
	</g>
</g>
<g>
	<path fill="#010101" d="M421.025,198.935c-3.463-2.07-4.561-6.614-2.448-10.149l36.538-61.151
		c2.113-3.535,6.633-4.721,10.098-2.651l24.992,14.932c3.463,2.07,4.561,6.613,2.449,10.148l-36.539,61.151
		c-2.112,3.536-6.635,4.722-10.099,2.652 M446.227,142.396c0,0-0.407-0.247-0.538-0.026l-1.416,2.37
		c-0.08,0.132-0.024,0.336,0.254,0.502L446.227,142.396z M450.199,135.75c0,0-0.409-0.246-0.54-0.026l-1.417,2.37
		c-0.077,0.132-0.024,0.336,0.255,0.502L450.199,135.75z M454.802,128.073c0,0-0.407-0.247-0.538-0.026l-1.84,3.078
		c-0.078,0.132-0.025,0.335,0.254,0.503L454.802,128.073z M490.057,139.764c0,0,0.25-0.43,0.026-0.562l-5.7-3.407
		c-0.131-0.078-0.337-0.001-0.504,0.277L490.057,139.764z M439.531,196.203c-0.363-0.217-0.748-0.369-1.14-0.461
		c-1.65-0.386-3.431,0.312-4.347,1.844c-0.916,1.531-0.686,3.43,0.436,4.701c0.267,0.301,0.583,0.568,0.945,0.785
		c1.897,1.133,4.354,0.514,5.487-1.382C442.046,199.793,441.427,197.336,439.531,196.203 M435.886,199.562l0.771-1.291
		c0.185-0.31,0.588-0.411,0.898-0.226l1.29,0.771c0.31,0.186,0.412,0.588,0.227,0.897l-0.772,1.291
		c-0.185,0.311-0.587,0.412-0.898,0.227l-1.289-0.77C435.802,200.274,435.7,199.871,435.886,199.562 M438.847,199.58
		c0.111-0.188,0.05-0.428-0.136-0.541l-1.289-0.77c-0.187-0.111-0.429-0.051-0.54,0.135l-0.771,1.291
		c-0.11,0.186-0.051,0.43,0.137,0.541l1.289,0.77c0.187,0.111,0.43,0.05,0.54-0.135L438.847,199.58z M486.408,154.008
		l-31.928-19.079l-28.744,48.103l31.929,19.078L486.408,154.008z M468.691,133.7c-0.531-0.316-1.218-0.143-1.533,0.386
		c-0.316,0.53-0.143,1.215,0.386,1.533c0.53,0.316,1.217,0.143,1.533-0.387C469.394,134.704,469.219,134.016,468.691,133.7z
		 M468.322,134.317c-0.189-0.112-0.434-0.051-0.546,0.138c-0.113,0.188-0.051,0.434,0.137,0.545
		c0.189,0.114,0.433,0.051,0.548-0.137C468.572,134.675,468.51,134.431,468.322,134.317z"/>
	<path fill="#FFFFFF" d="M478.236,140.583c-0.396,0.667-1.102,0.382-1.225,0.309l-5.477-3.273c-0.422-0.252-0.562-0.803-0.309-1.226
		c0.253-0.423,0.803-0.562,1.225-0.308c-0.121-0.073,0.15,0.089,0.289,0.172c0.119,0.072,0.811,0.485,0.932,0.557
		c-0.182-0.108,0.979,0.585,1.166,0.697c0.183,0.107,0.61,0.365,0.792,0.473l2.41,1.452
		C478.545,139.854,478.311,140.461,478.236,140.583"/>
</g>
<g>
	<g>
		<path fill="none" d="M604.654,211.869c0.004,1.135-0.256,1.391-1.39,1.39c-27.812-0.036-55.625-0.036-83.438,0
			c-1.135,0.001-1.391-0.255-1.39-1.39c0.037-28.568,0.037-57.137,0-85.705c-0.001-1.135,0.255-1.392,1.39-1.39
			c27.812,0.037,55.625,0.037,83.438,0c1.134-0.002,1.394,0.256,1.39,1.39c-0.044,14.284-0.029,28.568-0.029,42.853
			C604.625,183.3,604.61,197.584,604.654,211.869z M578.073,199.876c-0.2,1.674-0.564,3.386,1.009,4.78
			c0.501,0.446,0.635,1.358,0.614,2.135c-0.021,0.777,0.192,1.484,0.521,2.181c1.382,2.937,3.277,3.676,6.177,2.364
			c0.253-0.114,0.612-0.372,0.626-0.582c0.081-1.262,1.1-1.275,1.929-1.55c1.115-0.37,1.459-0.95,0.67-1.997
			c-0.408-0.539-0.656-1.264-1.383-1.416c-1.615-0.336-1.851-1.598-2.033-2.891c-0.095-0.67-0.147-1.359-0.104-2.032
			c0.337-5.417,0.646-10.837,1.033-16.249c0.372-5.191,2.051-9.866,3.77-14.583c1.063-2.919,0.789-5.804,0.549-8.708
			c-0.164-1.975-0.02-3.908,0.062-5.864c0.103-2.487,0.094-4.979,0.122-7.47c0.011-0.925,0.187-1.327,1.346-1.063
			c2.004,0.454,3.969,1.27,6.163,0.538c1.614-0.539,2.481-1.617,3.184-2.983c0.129-0.255,0.102-0.589,0.155-0.885
			c0.895-4.854,0.874-4.235-3.441-5.443c-1.09-0.306-2.009-0.698-2.688-1.823c-0.674-1.112-1.628-2.214-3.054-2.565
			c-1.199-0.297-1.633-1.093-1.856-2.26c-0.247-1.274-0.098-2.57-0.38-3.825c-0.133-0.589-0.418-1.317-1.14-1.107
			c-0.587,0.171-0.065,0.766-0.017,1.172c0.186,1.559-0.925,2.667-1.414,3.989c-0.153,0.417-0.458,0.175-0.619-0.148
			c-0.312-0.628-0.305-1.312-0.407-1.982c-0.195-1.27-0.485-2.526-1.37-3.532c-0.196-0.224-0.469-0.401-0.799-0.305
			c-0.384,0.111-0.362,0.437-0.311,0.732c0.236,1.358-0.437,2.502-0.879,3.692c-0.768,2.065-1.377,4.152-1.054,6.387
			c0.06,0.409-0.032,0.738-0.223,1.071c-2.024,3.529-2.941,7.417-3.642,11.369c-0.225,1.271-0.912,2.126-1.913,2.931
			c-2.632,2.113-5.691,3.412-8.703,4.803c-0.814,0.375-1.701,0.578-2.628,0.628c-5.273,0.282-10.548,0.558-15.815,0.921
			c-2.945,0.204-5.853,0.718-8.6,1.857c-1.013,0.42-2.171,0.728-2.49,2.062c-0.136,0.57-0.627,0.774-1.213,0.84
			c-2.896,0.316-4.287,2.345-5.13,4.798c-0.967,2.815-1.117,5.768-1.062,8.729c0.105,5.598-2.162,10.082-6.467,13.568
			c-1.401,1.132-2.457,2.665-4.175,3.441c-0.58,0.263-0.661,0.981-0.545,1.614c0.644,3.489-0.197,6.921-0.471,10.366
			c-0.12,1.529-0.15,3.027,1.114,3.91c1.483,1.037,3.21,0.413,4.788-0.088c0.648-0.205,0.897-0.795,0.585-1.475
			c-0.158-0.342-0.3-0.763-0.581-0.961c-3.647-2.573-1.823-5.754-0.801-8.666c0.584-1.668,1.859-3.113,3.326-4.229
			c1.064-0.809,1.49-0.652,1.904,0.671c0.522,1.665,0.707,3.405,0.815,5.131c0.088,1.376,0.322,2.681,0.834,3.961
			c0.563,1.411,1.489,1.968,2.903,1.748c1.572-0.244,0.98-1.649,1.42-2.495c0.177-0.342-0.057-0.578-0.349-0.713
			c-1.526-0.715-1.519-2.127-1.567-3.489c-0.115-3.199,0.958-5.898,3.38-8.058c1.64-1.462,3.323-2.873,5.232-3.954
			c2.782-1.571,4.608-3.792,5.332-6.948c0.5-2.184,0.591-2.213,2.693-1.597c1.105,0.325,1.823,0.165,1.91-1.079
			c0.089-1.275,0.836-1.424,1.874-1.309c1.353,0.148,2.688,0.296,3.987,0.773c5.197,1.912,10.51,3.316,16.095,3.405
			c1.214,0.02,1.854,0.472,2.188,1.767c1.009,3.908,1.301,7.873,1.27,11.881C578.308,195.807,578.314,197.842,578.073,199.876z"/>
		<path fill="#010101" d="M577.059,181.885c-0.335-1.293-0.975-1.747-2.189-1.766c-5.584-0.09-10.897-1.495-16.095-3.405
			c-1.297-0.478-2.634-0.626-3.986-0.774c-1.037-0.113-1.783,0.034-1.873,1.31c-0.087,1.245-0.805,1.403-1.911,1.08
			c-2.103-0.616-2.193-0.587-2.692,1.597c-0.725,3.155-2.552,5.375-5.332,6.949c-1.911,1.079-3.592,2.492-5.233,3.952
			c-2.422,2.16-3.496,4.86-3.381,8.059c0.049,1.362,0.042,2.774,1.568,3.487c0.293,0.137,0.525,0.373,0.349,0.713
			c-0.439,0.847,0.152,2.252-1.42,2.498c-1.413,0.219-2.34-0.339-2.903-1.749c-0.513-1.282-0.745-2.585-0.833-3.962
			c-0.109-1.727-0.294-3.465-0.815-5.131c-0.414-1.322-0.84-1.479-1.904-0.67c-1.467,1.115-2.741,2.561-3.327,4.227
			c-1.022,2.912-2.846,6.094,0.801,8.666c0.282,0.199,0.424,0.62,0.582,0.962c0.311,0.679,0.062,1.269-0.586,1.474
			c-1.577,0.502-3.304,1.127-4.786,0.09c-1.266-0.885-1.236-2.381-1.115-3.91c0.272-3.447,1.115-6.879,0.472-10.368
			c-0.117-0.632-0.036-1.35,0.544-1.612c1.717-0.777,2.772-2.309,4.173-3.443c4.307-3.486,6.573-7.969,6.469-13.566
			c-0.056-2.963,0.095-5.914,1.06-8.729c0.844-2.455,2.235-4.482,5.131-4.801c0.585-0.064,1.076-0.269,1.213-0.838
			c0.318-1.335,1.477-1.645,2.49-2.064c2.747-1.137,5.655-1.651,8.6-1.855c5.269-0.364,10.541-0.639,15.816-0.922
			c0.927-0.049,1.812-0.252,2.627-0.627c3.013-1.391,6.072-2.689,8.703-4.805c1.002-0.803,1.688-1.658,1.913-2.93
			c0.699-3.952,1.618-7.838,3.642-11.368c0.19-0.333,0.281-0.663,0.223-1.072c-0.322-2.235,0.287-4.322,1.055-6.388
			c0.442-1.19,1.113-2.333,0.878-3.691c-0.051-0.296-0.074-0.62,0.311-0.733c0.33-0.096,0.604,0.082,0.801,0.305
			c0.884,1.007,1.172,2.264,1.369,3.533c0.103,0.67,0.094,1.354,0.405,1.981c0.162,0.324,0.467,0.565,0.621,0.151
			c0.488-1.323,1.599-2.431,1.412-3.99c-0.048-0.405-0.568-1.001,0.018-1.171c0.722-0.209,1.007,0.517,1.14,1.107
			c0.283,1.254,0.135,2.551,0.38,3.826c0.224,1.166,0.656,1.962,1.857,2.258c1.426,0.353,2.38,1.453,3.053,2.566
			c0.68,1.125,1.601,1.516,2.688,1.822c4.314,1.21,4.336,0.591,3.442,5.445c-0.055,0.295-0.026,0.628-0.156,0.884
			c-0.702,1.367-1.57,2.444-3.183,2.983c-2.196,0.732-4.16-0.083-6.164-0.539c-1.159-0.262-1.334,0.138-1.345,1.064
			c-0.029,2.491-0.019,4.98-0.123,7.47c-0.08,1.956-0.225,3.888-0.062,5.865c0.242,2.902,0.515,5.786-0.548,8.706
			c-1.72,4.717-3.397,9.391-3.77,14.584c-0.389,5.411-0.696,10.83-1.035,16.248c-0.04,0.672,0.011,1.362,0.104,2.031
			c0.184,1.293,0.42,2.556,2.034,2.893c0.728,0.152,0.975,0.875,1.383,1.415c0.789,1.049,0.446,1.628-0.669,1.996
			c-0.829,0.274-1.849,0.29-1.93,1.55c-0.014,0.212-0.372,0.469-0.627,0.584c-2.899,1.312-4.793,0.572-6.176-2.363
			c-0.326-0.697-0.541-1.405-0.521-2.182c0.021-0.777-0.113-1.69-0.613-2.135c-1.575-1.396-1.209-3.105-1.009-4.78
			c0.243-2.032,0.236-4.067,0.259-6.104C578.362,189.762,578.069,185.797,577.059,181.885z"/>
	</g>
</g>
<g>
	<path fill="#010101" d="M628.252,197.994c0.002,2.17,1.046,6.046,3.204,8.066c0.801,0.748,4.735,3.191,6.619,2.377
		c0.964-0.412,3.059-1.846,2.688-4.443c-0.153-1.088-1.191-2.364-1.79-2.738c-0.209-0.129-0.675-0.231-0.828-0.039
		c0.333,0.842,1.296,2.266,1.101,3.326c-0.111,0.614-1.22,1.431-1.842,1.467c-1.646,0.093-4.252-1.428-4.447-4.759
		c-0.145-2.476,0.358-6.061,4.81-8.687c4.66-2.752,14.871-5.135,21.55-2.095c0.048,1.05-0.819,4.039-1.282,4.524
		c-0.579,0.031-1.139-0.05-1.603,0c-0.386,0.17-0.972,0.74-1.138,1.24c0.382-0.033,0.634-0.453,1.344-0.154
		c0.649,0.273,0.478,2.535,0.517,3.051c0.206,2.625,0.875,5.573,0.466,10.52c0.478,0.873,3.934,3.493,5.481,2.098
		c0.397,0.436,0.435,0.65,0.902,1.396c0.119-0.933,0.068-1.985-0.241-2.659c-0.482-1.043-2.423-1.736-2.894-2.531
		c-0.273-0.461-0.627-1.519-0.56-2.05c0.279-2.226,2.601-6.239,3.826-8.118c1.484-2.277,5.334-6.14,7.581-7.791
		c1.527-0.202,5.304,0.121,5.986,1.646c0.866,1.938-2.433,4.693-3.16,6.748c-0.498,0.603-1.701,1.007-0.377,2.965
		c-0.159-1.274,0.246-1.757,0.724-1.967c0.464-0.2,1.863,0.776,1.863,0.776s1.513,0.478,4.292,4.448
		c0.992,1.417,3.652,2.489,5.016,2.945c1.768-0.087,3.251-1.332,4.447-1.549c0.352,0.025,0.746,0.539,1.241,0.859
		c-0.208-0.841-0.467-1.688-1.189-1.896c-0.323-0.32-0.442-1.078-1.499-1.033c-1.394,0.055-2.961,1.242-4.552,0.361
		c-1.432-0.793-4.475-3.578-3.903-7.447c1.357-4.087,7.463-9.271,7.102-15.456c-0.162-2.802-2.209-4.62-4.232-5.692
		c1.059-3.949,1.501-12.146-1.913-18.252c-0.418-0.747-1.728-1.164-1.551-3.051c0.061-0.654,0.706-1.168,2.378-1.139
		c0.427,0.01,1.398,0.135,1.645,0.455c0.301,1.24-0.074,1.964-0.074,1.964c-0.559,0.56-0.488,1.507-0.712,1.731
		c0.38-0.381,0.764-0.16,1.261-0.685c-0.011,0.294-0.149,0.405-0.096,0.804c0.333-0.279,0.703-0.756,0.82-1.01
		c0.384-0.836,0.798-2.83,0.386-3.65c-0.257-0.508-1.569-0.922-2.04-1.004c-1.055-0.183-3.184-0.041-4.269-0.281
		c0.684-0.562,1.544-1.792,2.652-2.612c1.196,0.174,2.861,0.987,3.729,1.567c-0.072,0.363,0.129,1.126,0.169,1.81
		c0.36-0.469,0.642-1.005,0.642-1.005s0.321,0.321,0.438,1.143c0,0,0.217-0.536,0.258-0.725c0.188-0.861-0.273-1.764-0.621-2.223
		c-0.294-0.39-2.8-2.134-3.412-2.327c-0.459-0.145-2.93,0.595-5.164,2.042l-0.73-0.283c-1.654-4.537,0.395-11.247,5.326-8.834
		c1.233,0.604,2.048,0.834,2.822,0.561c0.546-0.192,1.607-1.525,1.567-2.33c-0.021-0.403-0.666-0.668-0.666-0.668l-0.103-0.517
		l-0.396,0.502l-0.069-0.658l-0.493,0.418l0.041-0.643l-0.523,0.361l-0.005-0.563l-0.516,0.282l-0.002-0.527l-0.519,0.31
		l-0.043-0.506l-0.421,0.506l-1.553-0.414l0.301-0.526l0.589,0.152l-0.008-0.482l0.408,0.36l0.174-0.597l0.27,0.396l0.086-0.613
		l0.475,0.531l0.113-0.804l0.33,0.403l0.079-0.724l0.514,0.339l0.123-0.705l0.489,0.446l0.106-0.878l0.416,0.557l0.149-0.772
		l0.414,0.451l0.144-1.001c0,0,0.963-0.821,0.901-1.299c-0.322-2.479-3.854-4.912-4.621-5.503c0,0-0.121-0.694-0.883-0.694
		c-0.966,0-0.854,0.869-0.854,0.869c-2.521,1.924-5.929,4.811-8.09,6.111c-0.387,0.051-1.06-0.576-1.447-0.569
		c-1.721,0.032-4.109,6.002-4.55,10.342c-0.373,3.655,0.551,9.07,0.154,11.117c-1.289,6.691-6.39,20.317-9.928,23.32
		c-1.916,1.627-4.084,3.124-5.799,3.89c-1.512,0.675-5.634,1.878-6.838,2.442c-1.615,0.756-4.961,2.135-6.624,2.986
		c-0.913,0.465-3.021,1.199-3.853,1.799c-1.366,0.984-3.476,3.14-4.55,4.965C628.818,194.411,628.252,196.221,628.252,197.994z"/>
</g>
<g>
	<path fill="#010101" d="M775.084,193.574v-1.816l0.544-1l-0.907-0.727v-1.271c-0.455-0.453-2.635-2.178-2.635-2.178l-0.726-0.091
		c-0.363-0.727-0.363-1.726-0.454-1.816c-0.091-0.181-0.182-2.271-0.182-2.36c0-0.091,0.454-0.727,0.454-0.727s0-0.636,0-0.818
		c0-0.181,0.272-0.09,0.272-0.271s-0.091-3.178-0.091-3.268c0-0.092,0.182-0.547,0.182-0.637c0-0.092,0.454-0.182,0.454-0.272
		s-0.091-1.454-0.091-1.454s0.272-0.181,0.362-0.361c0.092-0.183,0-0.363,0-0.818c-0.09-0.453-0.271-3.087-0.362-3.904
		c-0.092-0.817-0.272-2.542-0.272-2.542s0.363,0,0.545,0s0.727-0.545,0.816-0.636c0.092-0.092,0.363,0,0.728-0.363
		c0.362-0.362,0.727-1.998,0.816-2.543c0.091-0.544,0-1.361,0-1.361l0,0c0,0,0.454-0.272,0.636-0.364
		c0.182-0.09,0.364-0.544,0.454-0.816c0.091-0.272,0.727-1.544,0.727-1.815c0-0.273-0.362-0.636-0.362-0.636l0.726-1.091
		l-0.272-0.271l0.363-0.455h-0.363l-2.451-1.451l0,0l-0.092,0.544h-0.272l-0.907,1.271c-0.091-0.092-1.271-1.09-1.271-1.09
		c-0.091-0.272-0.545-1.907-0.727-2.361c-0.182-0.544-0.727-1.181-0.908-1.362c-0.181-0.181-0.545-0.09-0.635-0.181
		c-0.092,0,0-0.272,0-0.363s-0.273-0.182-0.454-0.364c-0.182-0.18-0.546-1.542-0.636-1.724c0-0.182,0.272-0.272,0.272-0.454
		s-0.272-1.271-0.364-1.634c-0.09-0.363,0.092-1.543,0.092-1.543l3.178-0.455l-3.178-0.181c0-0.182-0.182-0.545-0.182-0.545
		l2.633-1.362l-2.996,0.816c-0.182-0.272-0.545-0.544-0.545-0.544l1.362-2.18l-1.998,1.816c-0.183-0.182-0.817-0.272-0.817-0.272
		l-0.908-2.724l0.092,2.724c-0.363,0-0.909,0.364-0.909,0.364l-2.632-1.726l2.087,2.18c-0.182,0.091-0.362,0.454-0.362,0.454
		l-2.362,0.091c0-0.272,0-0.545,0-0.818c0-0.635-0.635-2.451-0.816-2.996c-0.181-0.544-0.362-1.816-0.362-2.179
		c0-0.364,0-1.544-0.091-2.271c-0.092-0.727-0.727-1.453-0.727-1.453s0-0.363,0.09-0.544c0.091-0.182,0.183-0.091,0.273-0.182
		s0-0.272,0-0.272s0.636-0.182,0.816-0.272c0.182-0.092,0.363-0.364,0.454-0.545c0-0.272-0.182-0.272-0.272-0.272
		c0-0.091-0.09-0.364-0.09-0.455c0-0.09,0.271-0.09,0.271-0.272c0-0.091,0-0.364-0.363-0.454c-0.362-0.091-1.09-0.363-1.09-0.363
		v-0.272c0,0,0.183-0.182,0.273-0.363c0.181-0.181,0.181-0.545,0.271-0.727c0.092-0.272,0.272-0.363,0.272-0.636
		c0.092-0.272-0.09-0.454-0.09-0.454c-0.273,0.182-0.637,0.545-0.637,0.545s0-0.272,0-0.545c0-0.272-0.181-0.181-0.362-0.09
		c-0.183,0.09-0.637,0.364-0.817,0.454c-0.183,0.09-0.545,0.272-0.727,0.544c-0.182,0.273-0.182,0.546-0.182,0.818
		c0,0.272,0.182,0.454,0.182,0.454v0.272c-0.817,0.091-1.181,0.454-1.362,0.545c-0.091,0.091,0,0.272,0,0.272
		c0.182,0.182,0.273,0.544,0.182,0.636c0,0.091-0.272,0-0.182,0.544c0.182,0.544,1.09,0.636,1.09,0.636s-0.091,0.091-0.091,0.272
		c0,0.09,0.182,0.182,0.182,0.182v0.454c0,0.09-0.182,0.182-0.272,0.272c-0.091,0.091,0,0.182,0,0.272c0,0.091,0.091,0.091,0,0.182
		s0,0.182,0,0.364c0,0.09,0.272,0.272,0.272,0.272h-0.182c0,0,0,0.272,0.091,0.544c0.091,0.272,0.272,0.908,0.272,0.908
		s0,0.272,0,0.364c0,0.09-0.272,0.363-0.182,0.544c0,0.182,0.271,0.272,0.271,0.363c0,0.091,0,0.454,0.092,0.727
		c0.091,0.182,0.362,0.454,0.362,0.454c0,0.182,0.091,1.998,0.091,2.271c0,0.272,0.092,1.271,0.183,1.634
		c0.09,0.364,0.454,1.09,0.454,1.454c0.09,0.363,0.181,1.271,0.181,1.271c-0.363,0.454-0.998,1.907-1.18,2.542
		c-0.183,0.636,0,2.09,0.271,2.27c0.273,0.183,0.908,0.273,0.908,0.273c-0.091,0.091-0.091,0.182-0.181,0.363
		c-0.091,0.182,0,0.635,0.09,0.817c0.091,0.182,0.454,0.091,0.545,0.272c0.183,0.182,0,0.816,0,1.09
		c0,0.271,0.273,0.544,0.273,0.816c0,0.273-0.273,0.908-0.273,1.09c0,0.271,0.363,0.635,0.546,0.817
		c0.181,0.182,0.272,0.544,0.272,0.544c-0.455,0.545-0.999,1.727-1.181,2.18c-0.183,0.455-0.455,1.725-0.455,2.179
		s0.363,1.182,0.546,1.454c0.181,0.271,0.545,0.362,0.545,0.362c0,0.272-0.454,1.454-0.636,1.907
		c-0.183,0.363-0.183,1.998-0.092,2.179c0,0.183,0.363,0.817,0.454,1.182c0.092,0.362,0.183,2.45,0.273,2.997
		c0.09,0.453-0.091,1.089-0.091,1.361c0,0.271-0.091,0.907-0.091,1.361c0.091,0.455,0.271,0.545,0.271,0.545
		c0,0.092-0.181,0.545-0.271,0.727c-0.092,0.182,0.091,3.541,0.182,3.996c0.09,0.453,0.453,1.633,0.453,1.906
		c0,0.182-0.363,0.545-0.363,0.635c0,0.092,0.091,0.182,0.091,0.273c0,0.091,0,0.635,0.092,0.998c0,0.272,0.181,0.363,0.181,0.363
		c-0.09,0.092-0.181,0.817-0.181,1.09c0,0.271-0.183,0.454-0.183,0.454s-0.363,0.091-0.998,0.091c-0.637,0-1.09,0.636-1.09,0.636
		v0.091l-0.727,0.271v1.635l-0.998,0.454l0.544,1.181v1.271l-0.544,0.545l-0.092,1.181h-2.996l0.09,2.996l1.636,1.362l-0.999,12.984
		h23.79l-0.272-11.26l0.544-0.363h0.818v-0.816l0.272-0.182v-2.089L775.084,193.574z M762.824,146.538
		c0,0.091-0.181,0.727-0.09,0.908c0,0.182,0.272,0.364,0.272,0.364c-0.183,0.091-0.637,0.818-0.637,0.818s-0.362-0.273-0.545-0.545
		c-0.18-0.182-0.18-0.726-0.18-0.999c0-0.182-0.184-0.545-0.364-0.908h1.453C762.824,146.265,762.916,146.357,762.824,146.538z
		 M762.734,145.176c0,0.182,0,0.454,0,0.454l-1.453,0.454c0-0.09-0.09-0.181-0.09-0.181c-0.092-0.273-0.638-0.636-0.728-0.727
		c0,0,0-0.181-0.091-0.454L762.734,145.176z"/>
</g>
</svg>
